:FULLY-SPECIFIED
:FORCE-ALL-JOINTS-BE-3DOF
:DEGREES
34
root 7.13056 17.0669 -27.8624 6.83348 4.36322 -5.19696
lfemur -29.4836 -0.958249 -18.5501
ltibia 43.3855 0 0
lfoot -28.3458 3.41788 0
ltoes 24.8831 0 0
rfemur -23.9249 -1.74033 18.6322
rtibia 53.6447 0 0
rfoot -7.04282 1.13402 0
rtoes -2.37439 0 0
lowerback -0.366722 3.86399 -2.60552
upperback -2.3968 5.22628 4.66982
thorax -2.72085 2.72144 6.27711
lowerneck -9.77864 -4.29205 1.3325
upperneck -2.0045 -5.75748 -1.01885
head 0.923165 -2.92345 -0.77591
lclavicle -6.065e-15 -1.98179e-14 0
lhumerus -41.5498 -2.57112 93.437
lradius 38.5486 0 0
lwrist 5.08359 0 0
lhand -10.0643 5.0644 0
lfingers 7.12502 0 0
lthumb 16.1883 36.5271 0
rclavicle -6.065e-15 -1.98179e-14 0
rhumerus -50.2089 -2.41893 -91.4942
rradius 43.0776 0 0
rwrist 9.53632 0 0
rhand -22.8397 -13.4255 0
rfingers 7.12502 0 0
rthumb 3.59929 22.8514 0
35
root 7.1483 17.0676 -27.8481 6.77494 4.53291 -5.22435
lfemur -29.6264 -1.04673 -18.4581
ltibia 43.4831 0 0
lfoot -28.0876 3.35751 0
ltoes 24.5647 0 0
rfemur -24.0637 -1.8413 18.5314
rtibia 54.11 0 0
rfoot -6.46733 1.4931 0
rtoes -2.84407 0 0
lowerback -0.330661 3.85375 -2.53367
upperback -2.38427 5.21178 4.66708
thorax -2.71935 2.71226 6.23344
lowerneck -9.7825 -4.33083 1.33075
upperneck -2.00558 -5.80882 -0.991606
head 0.92322 -2.94861 -0.769355
lclavicle -5.78656e-15 -1.93795e-14 0
lhumerus -41.5923 -2.47051 93.3251
lradius 38.7007 0 0
lwrist 5.22476 0 0
lhand -9.91214 5.01408 0
lfingers 7.12502 0 0
lthumb 16.3365 36.4765 0
rclavicle -5.78656e-15 -1.93795e-14 0
rhumerus -50.269 -2.35616 -91.4635
rradius 43.1864 0 0
rwrist 9.42857 0 0
rhand -22.7799 -13.2651 0
rfingers 7.12502 0 0
rthumb 3.65704 23.6189 0
36
root 7.16555 17.068 -27.8337 6.71693 4.70027 -5.24984
lfemur -29.7624 -1.13449 -18.3639
ltibia 43.5742 0 0
lfoot -27.8327 3.29509 0
ltoes 24.2525 0 0
rfemur -24.2025 -1.94406 18.4272
rtibia 54.5708 0 0
rfoot -5.89972 1.85162 0
rtoes -3.30023 0 0
lowerback -0.295424 3.84275 -2.46208
upperback -2.37155 5.19628 4.66246
thorax -2.71726 2.70258 6.18796
lowerneck -9.78664 -4.36856 1.32983
upperneck -2.00579 -5.85894 -0.964036
head 0.923637 -2.97313 -0.762791
lclavicle -5.51074e-15 -1.89461e-14 0
lhumerus -41.637 -2.37746 93.2175
lradius 38.8538 0 0
lwrist 5.36817 0 0
lhand -9.75371 4.96823 0
lfingers 7.12502 0 0
lthumb 16.4905 36.4274 0
rclavicle -5.51074e-15 -1.89461e-14 0
rhumerus -50.3217 -2.2941 -91.4206
rradius 43.2964 0 0
rwrist 9.31635 0 0
rhand -22.7187 -13.1107 0
rfingers 7.12502 0 0
rthumb 3.7161 24.3102 0
37
root 7.18232 17.0681 -27.819 6.65946 4.86528 -5.27345
lfemur -29.8915 -1.22152 -18.2677
ltibia 43.6588 0 0
lfoot -27.5811 3.23069 0
ltoes 23.9464 0 0
rfemur -24.341 -2.04856 18.3198
rtibia 55.027 0 0
rfoot -5.33998 2.20949 0
rtoes -3.74297 0 0
lowerback -0.261006 3.831 -2.39077
upperback -2.35867 5.17979 4.65599
thorax -2.71458 2.69241 6.1407
lowerneck -9.79106 -4.40525 1.32973
upperneck -2.00514 -5.90785 -0.936153
head 0.924408 -2.99699 -0.75622
lclavicle -5.23755e-15 -1.85178e-14 0
lhumerus -41.684 -2.29186 93.1141
lradius 39.008 0 0
lwrist 5.51376 0 0
lhand -9.58913 4.9268 0
lfingers 7.12502 0 0
lthumb 16.6502 36.3796 0
rclavicle -5.23755e-15 -1.85178e-14 0
rhumerus -50.367 -2.23276 -91.3658
rradius 43.4075 0 0
rwrist 9.19974 0 0
rhand -22.6562 -12.9622 0
rfingers 7.12502 0 0
rthumb 3.77644 24.9265 0
38
root 7.1986 17.0679 -27.804 6.60252 5.02795 -5.29522
lfemur -30.014 -1.3078 -18.1695
ltibia 43.7371 0 0
lfoot -27.3327 3.16435 0
ltoes 23.6463 0 0
rfemur -24.4794 -2.15473 18.2092
rtibia 55.4787 0 0
rfoot -4.78815 2.56665 0
rtoes -4.17241 0 0
lowerback -0.227402 3.81852 -2.31976
upperback -2.34561 5.16234 4.64772
thorax -2.71132 2.68176 6.09171
lowerneck -9.79574 -4.4409 1.33044
upperneck -2.00363 -5.95555 -0.90797
head 0.925527 -3.02022 -0.749645
lclavicle -4.96703e-15 -1.80947e-14 0
lhumerus -41.7331 -2.21362 93.0149
lradius 39.1631 0 0
lwrist 5.66146 0 0
lhand -9.41855 4.88972 0
lfingers 7.12502 0 0
lthumb 16.8153 36.3333 0
rclavicle -4.96703e-15 -1.80947e-14 0
rhumerus -50.405 -2.17212 -91.2993
rradius 43.5197 0 0
rwrist 9.07886 0 0
rhand -22.5925 -12.8195 0
rfingers 7.12502 0 0
rthumb 3.83802 25.4689 0
39
root 7.2144 17.0674 -27.7888 6.54612 5.18827 -5.31515
lfemur -30.1297 -1.39333 -18.0693
ltibia 43.8091 0 0
lfoot -27.0877 3.09612 0
ltoes 23.3521 0 0
rfemur -24.6175 -2.26252 18.0954
rtibia 55.9258 0 0
rfoot -4.24422 2.923 0
rtoes -4.58867 0 0
lowerback -0.194606 3.80531 -2.24906
upperback -2.33239 5.14395 4.63767
thorax -2.70749 2.67064 6.04104
lowerneck -9.80069 -4.47552 1.33194
upperneck -2.00129 -6.00205 -0.879499
head 0.926989 -3.04281 -0.743066
lclavicle -4.69919e-15 -1.76767e-14 0
lhumerus -41.7843 -2.14262 92.9199
lradius 39.3191 0 0
lwrist 5.81119 0 0
lhand -9.24212 4.85693 0
lfingers 7.12502 0 0
lthumb 16.9857 36.2883 0
rclavicle -4.69919e-15 -1.76767e-14 0
rhumerus -50.4359 -2.11221 -91.2213
rradius 43.633 0 0
rwrist 8.9538 0 0
rhand -22.5275 -12.6827 0
rfingers 7.12502 0 0
rthumb 3.90081 25.9385 0
40
root 7.22972 17.0667 -27.7734 6.49027 5.34623 -5.33329
lfemur -30.239 -1.47809 -17.9672
ltibia 43.8749 0 0
lfoot -26.8461 3.02605 0
ltoes 23.064 0 0
rfemur -24.7553 -2.37187 17.9786
rtibia 56.3681 0 0
rfoot -3.7082 3.27846 0
rtoes -4.99185 0 0
lowerback -0.162616 3.79141 -2.17868
upperback -2.31901 5.12463 4.62587
thorax -2.70311 2.65906 5.98872
lowerneck -9.8059 -4.50913 1.33422
upperneck -1.99813 -6.04736 -0.850753
head 0.928787 -3.06478 -0.736487
lclavicle -4.43408e-15 -1.72639e-14 0
lhumerus -41.8375 -2.07877 92.829
lradius 39.476 0 0
lwrist 5.96287 0 0
lhand -9.05997 4.82837 0
lfingers 7.12502 0 0
lthumb 17.1614 36.2447 0
rclavicle -4.43408e-15 -1.72639e-14 0
rhumerus -50.4596 -2.05302 -91.1319
rradius 43.7473 0 0
rwrist 8.82467 0 0
rhand -22.4612 -12.5515 0
rfingers 7.12502 0 0
rthumb 3.96475 26.3364 0
41
root 7.24457 17.0656 -27.7578 6.43498 5.50184 -5.34965
lfemur -30.3417 -1.56208 -17.8633
ltibia 43.9346 0 0
lfoot -26.6077 2.95419 0
ltoes 22.7819 0 0
rfemur -24.8929 -2.48273 17.8589
rtibia 56.8058 0 0
rfoot -3.18012 3.63295 0
rtoes -5.38206 0 0
lowerback -0.131424 3.77682 -2.10863
upperback -2.30548 5.10441 4.61236
thorax -2.69818 2.64703 5.93479
lowerneck -9.81136 -4.54172 1.33726
upperneck -1.99417 -6.09148 -0.821744
head 0.930915 -3.08612 -0.729907
lclavicle -4.1717e-15 -1.68563e-14 0
lhumerus -41.8927 -2.02197 92.7421
lradius 39.6337 0 0
lwrist 6.11643 0 0
lhand -8.87225 4.80396 0
lfingers 7.12502 0 0
lthumb 17.3421 36.2025 0
rclavicle -4.1717e-15 -1.68563e-14 0
rhumerus -50.4765 -1.99456 -91.0315
rradius 43.8626 0 0
rwrist 8.69158 0 0
rhand -22.3938 -12.4261 0
rfingers 7.12502 0 0
rthumb 4.02983 26.6637 0
42
root 7.25896 17.0642 -27.742 6.38025 5.6551 -5.36426
lfemur -30.4381 -1.64528 -17.7576
ltibia 43.9883 0 0
lfoot -26.3727 2.8806 0
ltoes 22.5057 0 0
rfemur -25.03 -2.59504 17.7363
rtibia 57.2388 0 0
rfoot -2.65998 3.9864 0
rtoes -5.75942 0 0
lowerback -0.101026 3.76155 -2.03893
upperback -2.29181 5.08331 4.59717
thorax -2.69271 2.63456 5.8793
lowerneck -9.81707 -4.57332 1.34105
upperneck -1.98942 -6.13443 -0.792485
head 0.933367 -3.10683 -0.723331
lclavicle -3.91208e-15 -1.64539e-14 0
lhumerus -41.9499 -1.97209 92.6593
lradius 39.7921 0 0
lwrist 6.2718 0 0
lhand -8.67912 4.78365 0
lfingers 7.12502 0 0
lthumb 17.5277 36.1616 0
rclavicle -3.91208e-15 -1.64539e-14 0
rhumerus -50.4865 -1.93682 -90.9202
rradius 43.9787 0 0
rwrist 8.55463 0 0
rhand -22.3253 -12.3062 0
rfingers 7.12502 0 0
rthumb 4.096 26.9216 0
43
root 7.27287 17.0626 -27.726 6.32608 5.80599 -5.37715
lfemur -30.5281 -1.72769 -17.6502
ltibia 44.0361 0 0
lfoot -26.1411 2.80531 0
ltoes 22.2354 0 0
rfemur -25.1668 -2.70875 17.6109
rtibia 57.6669 0 0
rfoot -2.14779 4.33871 0
rtoes -6.12405 0 0
lowerback -0.0714182 3.74563 -1.9696
upperback -2.278 5.06135 4.58033
thorax -2.68672 2.62167 5.8223
lowerneck -9.82302 -4.60391 1.34558
upperneck -1.98389 -6.17622 -0.762987
head 0.936137 -3.12694 -0.716758
lclavicle -3.65526e-15 -1.60567e-14 0
lhumerus -42.009 -1.92906 92.5804
lradius 39.9512 0 0
lwrist 6.4289 0 0
lhand -8.48072 4.76738 0
lfingers 7.12502 0 0
lthumb 17.7182 36.122 0
rclavicle -3.65526e-15 -1.60567e-14 0
rhumerus -50.4899 -1.87982 -90.7983
rradius 44.0958 0 0
rwrist 8.41393 0 0
rhand -22.2557 -12.1919 0
rfingers 7.12502 0 0
rthumb 4.16322 27.111 0
44
root 7.28633 17.0607 -27.7098 6.27249 5.95452 -5.38834
lfemur -30.6119 -1.80929 -17.5411
ltibia 44.078 0 0
lfoot -25.9128 2.72839 0
ltoes 21.971 0 0
rfemur -25.3032 -2.8238 17.4828
rtibia 58.0903 0 0
rfoot -1.64356 4.68982 0
rtoes -6.47605 0 0
lowerback -0.0425943 3.72907 -1.90064
upperback -2.26406 5.03855 4.56188
thorax -2.68021 2.60836 5.76381
lowerneck -9.82921 -4.63352 1.35084
upperneck -1.9776 -6.21684 -0.733264
head 0.939218 -3.14643 -0.710191
lclavicle -3.40126e-15 -1.56649e-14 0
lhumerus -42.0699 -1.89275 92.5055
lradius 40.1109 0 0
lwrist 6.58766 0 0
lhand -8.27719 4.75507 0
lfingers 7.12502 0 0
lthumb 17.9133 36.0837 0
rclavicle -3.40126e-15 -1.56649e-14 0
rhumerus -50.4866 -1.82356 -90.6659
rradius 44.2136 0 0
rwrist 8.26957 0 0
rhand -22.185 -12.0831 0
rfingers 7.12502 0 0
rthumb 4.23146 27.2332 0
45
root 7.29933 17.0586 -27.6934 6.21947 6.10068 -5.39785
lfemur -30.6895 -1.89008 -17.4305
ltibia 44.1142 0 0
lfoot -25.6879 2.64988 0
ltoes 21.7125 0 0
rfemur -25.4392 -2.94013 17.3521
rtibia 58.5087 0 0
rfoot -1.1473 5.03963 0
rtoes -6.81553 0 0
lowerback -0.0145498 3.71189 -1.83208
upperback -2.25 5.01494 4.54184
thorax -2.6732 2.59464 5.70389
lowerneck -9.83562 -4.66215 1.3568
upperneck -1.97057 -6.25631 -0.703328
head 0.942604 -3.16531 -0.703633
lclavicle -3.15011e-15 -1.52783e-14 0
lhumerus -42.1326 -1.86307 92.4344
lradius 40.2712 0 0
lwrist 6.748 0 0
lhand -8.06868 4.74666 0
lfingers 7.12502 0 0
lthumb 18.1129 36.0468 0
rclavicle -3.15011e-15 -1.52783e-14 0
rhumerus -50.4768 -1.76804 -90.5234
rradius 44.3322 0 0
rwrist 8.12166 0 0
rhand -22.1133 -11.9797 0
rfingers 7.12502 0 0
rthumb 4.30068 27.2892 0
46
root 7.31187 17.0561 -27.6768 6.16704 6.24448 -5.40572
lfemur -30.7611 -1.97004 -17.3182
ltibia 44.1447 0 0
lfoot -25.4664 2.56983 0
ltoes 21.4599 0 0
rfemur -25.5747 -3.05769 17.2189
rtibia 58.9223 0 0
rfoot -0.659033 5.38807 0
rtoes -7.14262 0 0
lowerback 0.0127204 3.6941 -1.76392
upperback -2.23581 4.99052 4.52026
thorax -2.6657 2.58053 5.64258
lowerneck -9.84225 -4.68981 1.36345
upperneck -1.9628 -6.29464 -0.673192
head 0.946289 -3.18359 -0.697083
lclavicle -2.90182e-15 -1.4897e-14 0
lhumerus -42.1971 -1.83991 92.3672
lradius 40.432 0 0
lwrist 6.90985 0 0
lhand -7.85534 4.7421 0
lfingers 7.12502 0 0
lthumb 18.317 36.0112 0
rclavicle -2.90182e-15 -1.4897e-14 0
rhumerus -50.4607 -1.71327 -90.3708
rradius 44.4516 0 0
rwrist 7.97031 0 0
rhand -22.0406 -11.8816 0
rfingers 7.12502 0 0
rthumb 4.37084 27.2802 0
47
root 7.32397 17.0535 -27.6601 6.1152 6.3859 -5.41197
lfemur -30.8267 -2.04917 -17.2046
ltibia 44.1696 0 0
lfoot -25.2483 2.48829 0
ltoes 21.213 0 0
rfemur -25.7097 -3.17642 17.0832
rtibia 59.3309 0 0
rfoot -0.17876 5.73505 0
rtoes -7.45741 0 0
lowerback 0.0392211 3.67571 -1.69617
upperback -2.22152 4.96533 4.49716
thorax -2.65771 2.56604 5.57991
lowerneck -9.84911 -4.71651 1.37079
upperneck -1.95432 -6.33184 -0.642867
head 0.950267 -3.20128 -0.690546
lclavicle -2.65643e-15 -1.45211e-14 0
lhumerus -42.2633 -1.82317 92.3038
lradius 40.5932 0 0
lwrist 7.07314 0 0
lhand -7.63731 4.74131 0
lfingers 7.12502 0 0
lthumb 18.5252 35.9768 0
rclavicle -2.65643e-15 -1.45211e-14 0
rhumerus -50.4383 -1.65924 -90.2084
rradius 44.5716 0 0
rwrist 7.81561 0 0
rhand -21.967 -11.7889 0
rfingers 7.12502 0 0
rthumb 4.44191 27.2072 0
